<svg width="40" height="30" viewBox="0 0 40 30" fill="none" xmlns="http://www.w3.org/2000/svg">
<path d="M38.3066 9.16285C37.177 6.44824 35.2666 4.13032 32.8176 2.50318C30.3686 0.876041 27.4915 0.0130092 24.5513 0.02358L0.160693 0C0.125392 0.000213302 0.0915981 0.014331 0.0666364 0.0392927C0.0416748 0.0642543 0.0275571 0.0980483 0.0273438 0.133349H0.0273438C0.0273437 1.06955 0.399193 1.96742 1.06111 2.6295C1.72303 3.29157 2.62082 3.66362 3.55702 3.66384H24.4855C26.6859 3.65771 28.84 4.29657 30.6813 5.50145C30.7055 5.51702 30.7239 5.54002 30.7338 5.56698C30.7438 5.59395 30.7447 5.62341 30.7365 5.65094C30.7282 5.67847 30.7112 5.70256 30.6881 5.7196C30.6649 5.73663 30.6369 5.74568 30.6081 5.74538H4.06277C4.01964 5.74538 3.97828 5.76252 3.94778 5.79301C3.91728 5.82351 3.90015 5.86487 3.90015 5.908C3.89962 6.36749 3.98966 6.82258 4.16513 7.24724C4.34059 7.67191 4.59805 8.05782 4.92277 8.38292C5.24749 8.70801 5.6331 8.96592 6.05756 9.14188C6.48202 9.31784 6.937 9.40841 7.39649 9.40841H34.1687C34.2243 9.40857 34.2788 9.42376 34.3265 9.45239C34.3742 9.48102 34.4132 9.52202 34.4395 9.57103C34.746 10.1307 35.0042 10.7156 35.2111 11.3192C35.2188 11.3425 35.2209 11.3673 35.2172 11.3916C35.2134 11.4159 35.204 11.4389 35.1896 11.4588C35.1753 11.4787 35.1564 11.495 35.1345 11.5062C35.1127 11.5174 35.0885 11.5232 35.0639 11.5233H9.72278C9.66842 11.5233 9.61626 11.5447 9.5776 11.5829C9.53893 11.6211 9.51689 11.673 9.51625 11.7274C9.50893 12.4291 9.48454 14.7212 9.48454 15.0074C9.48578 17.2293 9.98058 19.4232 10.9332 21.4305C11.8858 23.4378 13.2724 25.2085 14.9928 26.6145C16.7133 28.0205 18.7246 29.0268 20.8814 29.5606C23.0382 30.0944 25.2867 30.1425 27.4643 29.7013C29.6419 29.26 31.6944 28.3406 33.4733 27.0093C35.2522 25.6781 36.7132 23.9683 37.7507 22.0035C38.7882 20.0387 39.3762 17.8679 39.4723 15.6481C39.5685 13.4283 39.1703 11.2149 38.3066 9.16773V9.16285ZM35.8039 15.5937C35.7289 17.1042 35.3506 18.5842 34.6915 19.9454C34.1479 21.0755 33.2351 21.9865 32.104 22.528C30.9728 23.0694 29.6909 23.2091 28.4697 22.9238C26.8413 22.5323 25.3137 21.8023 23.9862 20.7813C23.9585 20.7561 23.9224 20.7421 23.885 20.7421C23.8475 20.7421 23.8115 20.7561 23.7838 20.7813L22.3307 22.214C22.3173 22.2273 22.3066 22.2432 22.2993 22.2607C22.2921 22.2783 22.2883 22.297 22.2883 22.316C22.2883 22.335 22.2921 22.3538 22.2993 22.3713C22.3066 22.3888 22.3173 22.4047 22.3307 22.4181C24.0017 24.0873 26.3654 25.2338 27.3403 25.664C27.3741 25.6776 27.4027 25.7018 27.4219 25.7329C27.441 25.764 27.4497 25.8004 27.4466 25.8368C27.4435 25.8732 27.4288 25.9076 27.4047 25.935C27.3806 25.9625 27.3483 25.9815 27.3126 25.9892C25.3013 26.4939 23.1921 26.4568 21.1997 25.8819C20.4725 25.6776 19.7722 25.3877 19.1133 25.0184C15.4958 22.9856 13.3573 19.4673 13.1622 15.5864C13.1597 15.5342 13.1678 15.4821 13.1861 15.4332C13.2044 15.3843 13.2325 15.3396 13.2686 15.3019C13.3048 15.2642 13.3482 15.2343 13.3963 15.214C13.4445 15.1937 13.4962 15.1835 13.5484 15.1839H35.4119C35.4649 15.1839 35.5173 15.1947 35.566 15.2156C35.6147 15.2364 35.6587 15.2669 35.6953 15.3052C35.7319 15.3435 35.7604 15.3888 35.7791 15.4383C35.7977 15.4879 35.8062 15.5408 35.8039 15.5937Z" fill="url(#paint0_linear)"/>
<defs>
<linearGradient id="paint0_linear" x1="29.0762" y1="26.48" x2="4.51569" y2="-0.00875539" gradientUnits="userSpaceOnUse">
<stop stop-color="#16D3A9"/>
<stop offset="1" stop-color="#6AEBA7"/>
</linearGradient>
</defs>
</svg>
