<svg width="32" height="32" viewBox="0 0 32 32" fill="none" xmlns="http://www.w3.org/2000/svg">
<path d="M31.0426 11.4281C30.43 9.97996 29.553 8.67942 28.436 7.56279C27.319 6.44617 26.0187 5.56947 24.5694 4.95711C24.0663 4.7442 23.5533 4.56688 23.031 4.42516C22.007 4.14699 20.948 4.01977 19.8871 4.01912L0.108139 4C0.0487946 4 0 4.04878 0 4.1081C0 5.68878 1.28185 6.96954 2.86239 6.96954H19.8343V6.97086C21.645 6.97086 23.3759 7.49094 24.8562 8.45992C24.9446 8.51793 24.903 8.65569 24.7969 8.65569H3.27253C3.19934 8.65569 3.14 8.71502 3.14 8.78818C3.14 10.355 4.41063 11.6259 5.97865 11.6259H27.6876C27.7786 11.6259 27.8637 11.6747 27.9072 11.7551C28.1558 12.2093 28.3655 12.6832 28.533 13.1723C28.5606 13.2534 28.4993 13.3377 28.4136 13.3377H7.86318C7.77152 13.3377 7.69635 13.4109 7.69569 13.5025C7.68976 14.0714 7.66932 15.9296 7.66932 16.1616C7.66932 17.8029 7.9911 19.3955 8.62609 20.8957C9.23866 22.3439 10.1156 23.6445 11.2326 24.7611C12.3496 25.8777 13.65 26.7544 15.0993 27.3668C16.5994 28.0009 18.1925 28.3232 19.8343 28.3232C21.4762 28.3232 23.0693 28.0016 24.57 27.3668C26.0187 26.7544 27.3197 25.8777 28.4367 24.7611C29.5537 23.6445 30.4307 22.3446 31.0432 20.8957C31.6782 19.3955 32 17.8029 32 16.1616C32 14.5203 31.6769 12.9284 31.0426 11.4281ZM28.1129 20.1693C27.1984 22.0546 25.1068 23.0651 23.0673 22.5832C21.9226 22.313 20.6526 21.7777 19.4321 20.8463C19.3813 20.8074 19.3134 20.8015 19.2679 20.847L18.0876 22.0078C18.0421 22.0532 18.0421 22.1277 18.0883 22.1732C19.4433 23.5265 21.3601 24.4566 22.1508 24.8053C22.2708 24.858 22.2556 25.0333 22.1283 25.0656C20.5616 25.4664 18.865 25.4565 17.1711 24.9793C16.5809 24.8132 16.0138 24.5792 15.4791 24.2792C12.5455 22.6333 10.8113 19.7791 10.653 16.6342C10.6438 16.4549 10.7862 16.308 10.9662 16.308H28.6958C28.8778 16.308 29.0249 16.4602 29.0156 16.6421C28.9517 17.882 28.6431 19.0764 28.1129 20.1693Z" fill="url(#paint0_linear)"/>
<defs>
<linearGradient id="paint0_linear" x1="23.5577" y1="25.4693" x2="3.645" y2="3.98818" gradientUnits="userSpaceOnUse">
<stop stop-color="#16D3A9"/>
<stop offset="1" stop-color="#6AEBA7"/>
</linearGradient>
</defs>
</svg>
